<svg id="Capa_1" enable-background="new 0 0 512 512" height="512" viewBox="0 0 512 512" width="512" xmlns="http://www.w3.org/2000/svg"><g><path d="m106.005 480.976c14.349 8.284 32.697 3.368 40.981-10.981l4.014-6.953v-120l-55.976 96.953c-8.284 14.349-3.368 32.696 10.981 40.981z"/><circle cx="376" cy="55" r="55"/><path d="m496 260h-53.072c-10.391 17.916-29.769 30-51.928 30h105c8.284 0 15-6.716 15-15s-6.716-15-15-15z"/><g><path d="m181 481.376c0 16.347 12.817 30.164 29.157 30.612 16.954.465 30.843-13.139 30.843-29.988v-162h-60z"/></g><path d="m21 497c0 8.284 6.716 15 15 15s15-6.716 15-15v-177h-30z"/><path d="m461 497c0 8.284 6.716 15 15 15s15-6.716 15-15v-177h-30z"/></g><path d="m391 200h-60v-72.938c-23.999-15.04-40-41.711-40-72.062 0-4.964.452-9.821 1.272-14.554-2.051-.286-4.143-.445-6.272-.445h-.002c-74.557 0-134.998 60.441-134.998 134.999v60c0 3.246 1.053 6.404 3 9l12 16h-150c-8.284 0-15 6.716-15 15s6.716 15 15 15h278.6c-29.555-.753-53.6-25.549-53.6-55.263v-54.314c0-8.077 6.207-15.027 14.275-15.406 8.614-.405 15.725 6.458 15.725 14.983v54.737c0 13.404 10.963 24.922 24.363 25.263h95.637c16.568 0 30-13.431 30-30 0-16.568-13.431-30-30-30z"/><path d=""/></svg>